<?xml version="1.0" encoding="UTF-8" standalone="no"?>
<svg xmlns="http://www.w3.org/2000/svg" width="600" height="150" viewBox="0 0 600 150">
  <style>
    .map { fill: #2E8B57; }
    .text-siblam { fill: #2E8B57; font-family: Arial, sans-serif; font-weight: bold; }
    .subtitle-bg { fill: #9ACD32; }
    .subtitle { fill: white; font-family: Arial, sans-serif; font-size: 14px; }
    .map-light { fill: #B5E061; }
  </style>

  <!-- Mapa do Brasil -->
  <path class="map-light" d="M40,20 C40,20 60,10 80,20 C100,30 120,40 140,30 C160,20 180,10 160,30 
                           C140,50 120,60 100,50 C80,40 60,30 40,20Z"/>
  <path class="map" d="M45,25 C45,25 65,15 85,25 C105,35 125,45 145,35 C165,25 185,15 165,35 
                      C145,55 125,65 105,55 C85,45 65,35 45,25Z"/>

  <!-- SIBLAM texto -->
  <text x="180" y="60" class="text-siblam" font-size="72">SIBLAM</text>

  <!-- Barra verde com subtítulo -->
  <rect x="0" y="80" width="600" height="30" class="subtitle-bg"/>
  <text x="150" y="100" class="subtitle" text-anchor="middle">SISTEMA BRASILEIRO DE LICENCIAMENTO AMBIENTAL</text>
</svg>
